<svg width="518" height="519" viewBox="0 0 518 519" fill="none" xmlns="http://www.w3.org/2000/svg">
<g filter="url(#filter0_d)">
<rect x="1" width="512" height="512" rx="15" fill="#1AA361"/>
</g>
<g filter="url(#filter1_di)">
<path d="M163.28 134.42H260.72C283.96 134.42 302.44 136.8 316.16 141.56C328.76 146.04 337.16 151.64 341.36 158.36C345.84 165.08 348.08 174.32 348.08 186.08V222.62C348.08 233.54 345 242.08 338.84 248.24C332.68 254.12 323.3 258.46 310.7 261.26V262.94C325.54 265.46 337.44 270.64 346.4 278.48C355.64 286.04 360.26 295.56 360.26 307.04V352.82C360.26 372.7 352.84 386.7 338 394.82C323.16 402.94 298.38 407 263.66 407H163.28V134.42ZM261.98 253.7C279.06 253.7 291.24 251.18 298.52 246.14C306.08 240.82 309.86 232.56 309.86 221.36V189.44C309.86 179.08 306.08 171.8 298.52 167.6C290.96 163.4 278.36 161.3 260.72 161.3H204.02V253.7H261.98ZM263.66 378.86C284.1 378.86 298.52 376.76 306.92 372.56C315.32 368.36 319.52 361.22 319.52 351.14V309.98C319.52 302.7 317.98 296.96 314.9 292.76C312.1 288.28 307.62 285.06 301.46 283.1C295.3 281.42 289.84 280.44 285.08 280.16C280.32 279.6 273.18 279.32 263.66 279.32H204.02V378.86H263.66Z" fill="white"/>
</g>
<defs>
<filter id="filter0_d" x="0" y="0" width="518" height="519" filterUnits="userSpaceOnUse" color-interpolation-filters="sRGB">
<feFlood flood-opacity="0" result="BackgroundImageFix"/>
<feColorMatrix in="SourceAlpha" type="matrix" values="0 0 0 0 0 0 0 0 0 0 0 0 0 0 0 0 0 0 127 0"/>
<feOffset dx="2" dy="4"/>
<feGaussianBlur stdDeviation="1.5"/>
<feColorMatrix type="matrix" values="0 0 0 0 0 0 0 0 0 0 0 0 0 0 0 0 0 0 0.25 0"/>
<feBlend mode="normal" in2="BackgroundImageFix" result="effect1_dropShadow"/>
<feBlend mode="normal" in="SourceGraphic" in2="effect1_dropShadow" result="shape"/>
</filter>
<filter id="filter1_di" x="159.28" y="134.42" width="204.98" height="280.58" filterUnits="userSpaceOnUse" color-interpolation-filters="sRGB">
<feFlood flood-opacity="0" result="BackgroundImageFix"/>
<feColorMatrix in="SourceAlpha" type="matrix" values="0 0 0 0 0 0 0 0 0 0 0 0 0 0 0 0 0 0 127 0"/>
<feOffset dy="4"/>
<feGaussianBlur stdDeviation="2"/>
<feColorMatrix type="matrix" values="0 0 0 0 0 0 0 0 0 0 0 0 0 0 0 0 0 0 0.25 0"/>
<feBlend mode="normal" in2="BackgroundImageFix" result="effect1_dropShadow"/>
<feBlend mode="normal" in="SourceGraphic" in2="effect1_dropShadow" result="shape"/>
<feColorMatrix in="SourceAlpha" type="matrix" values="0 0 0 0 0 0 0 0 0 0 0 0 0 0 0 0 0 0 127 0" result="hardAlpha"/>
<feOffset dy="4"/>
<feGaussianBlur stdDeviation="2"/>
<feComposite in2="hardAlpha" operator="arithmetic" k2="-1" k3="1"/>
<feColorMatrix type="matrix" values="0 0 0 0 0.995833 0 0 0 0 0 0 0 0 0 0 0 0 0 0.25 0"/>
<feBlend mode="normal" in2="shape" result="effect2_innerShadow"/>
</filter>
</defs>
</svg>
